<svg width="26" height="26" viewBox="0 0 26 26" fill="none" xmlns="http://www.w3.org/2000/svg">
<path d="M20.0417 10.2913V9.15801C20.0417 8.0379 20.0417 7.47785 19.8237 7.05003C19.6319 6.6737 19.326 6.36774 18.9496 6.17599C18.5218 5.95801 17.9618 5.95801 16.8417 5.95801H8.075C6.9549 5.95801 6.39484 5.95801 5.96702 6.17599C5.59069 6.36774 5.28473 6.6737 5.09299 7.05003C4.875 7.47785 4.875 8.0379 4.875 9.15801V13.5913C4.875 14.7114 4.875 15.2715 5.09299 15.6993C5.28473 16.0756 5.59069 16.3816 5.96702 16.5734C6.39484 16.7913 6.95489 16.7913 8.075 16.7913H14.625" stroke="white" stroke-width="2" stroke-linecap="round"/>
<path d="M8.125 13.542H12.4583" stroke="white" stroke-linecap="round"/>
<path d="M8.125 9.20801H15.7083" stroke="white" stroke-linecap="round"/>
<circle cx="18.9583" cy="14.6253" r="2.20833" stroke="white"/>
<path d="M21.1243 20.0413C21.1243 20.0413 20.5827 18.958 18.9577 18.958C17.3327 18.958 16.791 20.0413 16.791 20.0413" stroke="white" stroke-linecap="round"/>
</svg>
