<svg width="683" height="683" viewBox="0 0 683 683" fill="none" xmlns="http://www.w3.org/2000/svg">
<path d="M9.73358 27.3333C-0.399758 31.7333 -2.93309 45.7333 4.80024 53.3333C7.20024 55.7333 22.4002 63.0666 45.8669 73.1999C66.2669 81.9999 83.2002 89.4666 83.4669 89.5999C83.6002 89.8666 102.134 179.333 124.667 288.667C148.267 403.333 166.667 489.333 168 492.133C170.934 497.867 178.667 504.8 185.2 507.867C189.6 509.733 208.8 510 390.667 510.4C501.067 510.667 594.534 510.4 598.534 510C611.867 508.4 619.2 497.2 614 486.267C612.8 483.6 610.134 480.4 608.267 479.067C604.8 476.8 594.934 476.667 401.067 476.267C288.934 476.133 197.334 475.733 197.334 475.333C197.334 475.067 195.2 464.8 192.667 452.533C190.134 440.4 188 429.867 188 429.2C188 428.533 273.2 428 399.067 428H610L616.667 424.8C623.867 421.467 630 415.333 632.8 408.533C633.734 406.267 645.467 351.6 658.667 287.2C684.534 162.133 684.4 163.2 678.8 152.267C675.734 146.267 668.267 139.2 661.467 136.133C657.067 134.133 632.934 134 391.734 133.6C245.867 133.467 126.667 133.067 126.667 132.667C126.667 132.4 124.267 120.267 121.2 105.733C115.067 75.9999 112 68.5333 103.334 62.7999C96.2669 57.9999 20.9336 25.3333 17.0669 25.3333C15.3336 25.4666 12.0002 26.2666 9.73358 27.3333ZM648.534 170.267C647.467 174.933 602.667 393.2 602.667 393.867C602.667 394.267 507.734 394.667 391.734 394.667H180.667L157.6 282.267C144.934 220.533 134.534 169.6 134.667 168.933C134.667 168.4 250.4 168 391.867 168C636.134 168 649.067 168.133 648.534 170.267Z" fill="white"/>
<path d="M260.534 225.733C251.467 234 253.734 248.133 264.667 252.8C271.601 255.733 512.934 255.6 518.667 252.667C527.734 248 530.801 236.933 525.467 228.8C520.401 221.067 526.934 221.467 390.934 221.333H265.334L260.534 225.733Z" fill="white"/>
<path d="M275.867 311.067C270.4 314.8 268 319.067 268 325.867C268 330 268.933 331.867 273.2 336.133L278.4 341.333H390.533C513.733 341.333 508.4 341.733 512.667 333.333C515.333 328.267 515.2 320.667 512.4 315.867C507.6 307.733 512.267 308 390.933 308H280.4L275.867 311.067Z" fill="white"/>
<path d="M269.065 539.867C252.265 545.334 239.865 556.134 232.132 572C227.465 581.734 227.332 582.4 227.332 597.334C227.332 612.267 227.465 612.934 232.265 622.8C243.999 646.8 269.865 660.534 295.332 656.267C327.865 650.934 350.665 619.867 345.465 588.267C339.332 552.134 303.065 529.067 269.065 539.867ZM295.732 572.8C313.732 580.267 318.265 601.334 304.799 615.334C289.332 631.467 262.399 622.267 260.265 600.134C258.399 580 277.599 565.2 295.732 572.8Z" fill="white"/>
<path d="M479.733 539.867C462.8 545.334 450.4 556.134 442.8 572C438.133 581.734 438 582.534 438 597.467C438 612.534 438.133 612.934 443.067 622.934C454.8 646.8 480.667 660.534 506 656.267C538.4 650.934 560.933 620.267 556 588.267C550.4 552.4 513.6 529.067 479.733 539.867ZM507.333 573.2C514.8 576.667 520.133 582.8 522 590.134C526.4 607.467 514.133 623.467 496.533 623.334C468.267 622.934 460.667 584.134 486.667 572.8C492.933 570 500.933 570.267 507.333 573.2Z" fill="white"/>
</svg>
