<svg width="28" height="28" viewBox="0 0 28 28" fill="none" xmlns="http://www.w3.org/2000/svg">
<rect width="28" height="28" rx="14" fill="white"/>
<rect x="0.5" y="0.5" width="27" height="27" rx="13.5" stroke="black" stroke-opacity="0.2"/>
<path d="M21.2008 12.8402V10.0002C19.8708 10.0002 18.8558 9.64523 18.2008 8.95523C17.5285 8.16776 17.1519 7.17051 17.1358 6.13523V5.93023L14.4508 5.86523V17.4002C14.3587 17.9035 14.1144 18.3664 13.7509 18.7265C13.3873 19.0865 12.9221 19.3263 12.418 19.4136C11.9138 19.5008 11.395 19.4313 10.9317 19.2144C10.4683 18.9974 10.0826 18.6436 9.82674 18.2005C9.57086 17.7574 9.45707 17.2465 9.50075 16.7368C9.54443 16.227 9.74346 15.7429 10.071 15.3498C10.3985 14.9568 10.8387 14.6737 11.3323 14.5387C11.8258 14.4038 12.3488 14.4235 12.8308 14.5952V11.8452C12.5498 11.7992 12.2655 11.7758 11.9808 11.7752C10.9563 11.7752 9.95478 12.079 9.10293 12.6482C8.25108 13.2174 7.58715 14.0264 7.19509 14.9729C6.80303 15.9195 6.70044 16.961 6.90032 17.9658C7.10019 18.9706 7.59353 19.8936 8.31797 20.618C9.04241 21.3425 9.96539 21.8358 10.9702 22.0357C11.975 22.2356 13.0166 22.133 13.9631 21.7409C14.9096 21.3489 15.7186 20.6849 16.2878 19.8331C16.857 18.9812 17.1608 17.9797 17.1608 16.9552C17.1602 16.743 17.1469 16.5309 17.1208 16.3202V11.7452C18.3417 12.5077 19.7622 12.8889 21.2008 12.8402Z" fill="black"/>
</svg>
