<svg width="16" height="17" viewBox="0 0 16 17" fill="none" xmlns="http://www.w3.org/2000/svg">
<path d="M13.4551 5.98313L13.4538 5.98436C13.4247 6.01357 13.396 6.0293 13.3333 6.0293H9.33333C9.27064 6.0293 9.24194 6.01357 9.21284 5.98436L9.21161 5.98313C9.1824 5.95402 9.16667 5.92532 9.16667 5.86263V3.19596C9.16667 3.13326 9.18244 3.10397 9.21222 3.07418C9.2412 3.0452 9.2701 3.0293 9.33333 3.0293H13.3333C13.3966 3.0293 13.4255 3.0452 13.4544 3.07418C13.4842 3.10397 13.5 3.13326 13.5 3.19596V5.86263C13.5 5.92532 13.4843 5.95402 13.4551 5.98313ZM6.78845 8.65041L7.142 9.00396L6.78845 8.65041C6.75866 8.68019 6.72937 8.69596 6.66667 8.69596H2.66667C2.60398 8.69596 2.57527 8.68023 2.54617 8.65102L2.54494 8.6498C2.51573 8.62069 2.5 8.59199 2.5 8.5293V3.19596C2.5 3.13326 2.51577 3.10397 2.54555 3.07418C2.57453 3.0452 2.60343 3.0293 2.66667 3.0293H6.66667C6.72947 3.0293 6.75898 3.04502 6.78843 3.07417C6.81761 3.10363 6.83333 3.13314 6.83333 3.19596V8.5293C6.83333 8.59254 6.81743 8.62143 6.78845 8.65041ZM2.54555 11.0742L2.192 10.7206L2.54555 11.0742C2.57453 11.0452 2.60343 11.0293 2.66667 11.0293H6.66667C6.72947 11.0293 6.75898 11.045 6.78842 11.0742C6.8176 11.1036 6.83333 11.1331 6.83333 11.196V13.8626C6.83333 13.9259 6.81743 13.9548 6.78845 13.9837C6.75866 14.0135 6.72937 14.0293 6.66667 14.0293H2.66667C2.60398 14.0293 2.57527 14.0136 2.54617 13.9844L2.54494 13.9831C2.51573 13.954 2.5 13.9253 2.5 13.8626V11.196C2.5 11.1333 2.51577 11.104 2.54555 11.0742ZM9.21284 13.9844L9.21161 13.9831C9.1824 13.954 9.16667 13.9253 9.16667 13.8626V8.5293C9.16667 8.46659 9.18244 8.4373 9.21222 8.40752C9.2412 8.37854 9.27009 8.36263 9.33333 8.36263H13.3333C13.3966 8.36263 13.4255 8.37854 13.4544 8.40752C13.4842 8.4373 13.5 8.46659 13.5 8.5293V13.8626C13.5 13.9253 13.4843 13.954 13.4551 13.9831L13.4538 13.9844C13.4247 14.0136 13.396 14.0293 13.3333 14.0293H9.33333C9.27064 14.0293 9.24194 14.0136 9.21284 13.9844ZM2.83333 7.86263V8.36263H3.33333H6H6.5V7.86263V3.86263V3.36263H6H3.33333H2.83333V3.86263V7.86263ZM9.5 13.196V13.696H10H12.6667H13.1667V13.196V9.19596V8.69596H12.6667H10H9.5V9.19596V13.196ZM9.5 5.19596V5.69596H10H12.6667H13.1667V5.19596V3.86263V3.36263H12.6667H10H9.5V3.86263V5.19596ZM2.83333 13.196V13.696H3.33333H6H6.5V13.196V11.8626V11.3626H6H3.33333H2.83333V11.8626V13.196Z" fill="black" stroke="white"/>
</svg>
