<svg width="29" height="29" viewBox="0 0 29 29" fill="none" xmlns="http://www.w3.org/2000/svg">
<circle cx="14.9297" cy="14.5294" r="14" fill="white"/>
<path d="M14.9304 8.97663C16.7392 8.97663 16.9533 8.9834 17.6679 9.01598C18.0975 9.02124 18.523 9.10012 18.9259 9.24921C19.2181 9.3619 19.4835 9.53453 19.705 9.75598C19.9264 9.97744 20.099 10.2428 20.2117 10.535C20.3608 10.938 20.4397 11.3635 20.445 11.7931C20.4772 12.5076 20.4843 12.7218 20.4843 14.5305C20.4843 16.3392 20.4775 16.5534 20.445 17.2679C20.4397 17.6975 20.3608 18.123 20.2117 18.526C20.099 18.8182 19.9264 19.0836 19.705 19.305C19.4835 19.5265 19.2181 19.6991 18.9259 19.8118C18.523 19.9609 18.0975 20.0398 17.6679 20.045C16.9537 20.0773 16.7395 20.0844 14.9304 20.0844C13.1214 20.0844 12.9072 20.0776 12.193 20.045C11.7634 20.0398 11.3379 19.9609 10.935 19.8118C10.6428 19.6991 10.3774 19.5265 10.1559 19.305C9.93447 19.0836 9.76184 18.8182 9.64915 18.526C9.50007 18.123 9.42118 17.6975 9.41593 17.2679C9.38367 16.5534 9.37657 16.3392 9.37657 14.5305C9.37657 12.7218 9.38335 12.5076 9.41593 11.7931C9.42118 11.3635 9.50007 10.938 9.64915 10.535C9.76184 10.2428 9.93447 9.97744 10.1559 9.75598C10.3774 9.53453 10.6428 9.3619 10.935 9.24921C11.3379 9.10012 11.7634 9.02124 12.193 9.01598C12.9075 8.98372 13.1217 8.97663 14.9304 8.97663ZM14.9304 7.75598C13.0917 7.75598 12.8601 7.76372 12.1375 7.79663C11.5753 7.80781 11.019 7.91427 10.4924 8.11147C10.0406 8.28168 9.63141 8.54842 9.29335 8.89308C8.94838 9.23126 8.68141 9.64069 8.51109 10.0928C8.31389 10.6194 8.20743 11.1757 8.19625 11.7379C8.16399 12.4599 8.15625 12.6915 8.15625 14.5302C8.15625 16.3689 8.16399 16.6005 8.1969 17.3231C8.20808 17.8853 8.31453 18.4416 8.51173 18.9682C8.68187 19.4202 8.94861 19.8297 9.29335 20.1679C9.6316 20.5127 10.041 20.7794 10.493 20.9495C11.0197 21.1467 11.5759 21.2532 12.1382 21.2644C12.8608 21.2966 13.0914 21.305 14.9311 21.305C16.7708 21.305 17.0014 21.2973 17.724 21.2644C18.2862 21.2532 18.8425 21.1467 19.3692 20.9495C19.819 20.7752 20.2275 20.5088 20.5686 20.1675C20.9096 19.8263 21.1757 19.4176 21.3498 18.9676C21.547 18.4409 21.6535 17.8847 21.6646 17.3224C21.6969 16.6005 21.7046 16.3689 21.7046 14.5302C21.7046 12.6915 21.6969 12.4599 21.664 11.7373C21.6528 11.175 21.5464 10.6188 21.3492 10.0921C21.179 9.6401 20.9123 9.23068 20.5675 8.89243C20.2293 8.5477 19.8199 8.28095 19.3679 8.11082C18.8412 7.91362 18.2849 7.80716 17.7227 7.79598C17.0008 7.76372 16.7692 7.75598 14.9304 7.75598Z" fill="black"/>
<path d="M14.9318 11.0529C14.2438 11.0529 13.5712 11.2569 12.9992 11.6391C12.4271 12.0214 11.9812 12.5647 11.7179 13.2003C11.4546 13.836 11.3857 14.5354 11.52 15.2102C11.6542 15.885 11.9855 16.5049 12.472 16.9914C12.9585 17.4779 13.5784 17.8092 14.2532 17.9434C14.928 18.0777 15.6274 18.0088 16.2631 17.7455C16.8987 17.4822 17.442 17.0363 17.8243 16.4642C18.2065 15.8922 18.4105 15.2196 18.4105 14.5316C18.4105 13.609 18.044 12.7241 17.3917 12.0717C16.7393 11.4194 15.8544 11.0529 14.9318 11.0529ZM14.9318 16.7896C14.4852 16.7896 14.0487 16.6572 13.6773 16.4091C13.306 16.161 13.0166 15.8083 12.8457 15.3957C12.6747 14.9831 12.63 14.5291 12.7172 14.091C12.8043 13.653 13.0193 13.2507 13.3351 12.9349C13.6509 12.6191 14.0533 12.404 14.4913 12.3169C14.9293 12.2298 15.3834 12.2745 15.796 12.4454C16.2086 12.6163 16.5612 12.9057 16.8093 13.2771C17.0575 13.6484 17.1899 14.085 17.1899 14.5316C17.1899 15.1304 16.952 15.7048 16.5285 16.1283C16.1051 16.5517 15.5307 16.7896 14.9318 16.7896Z" fill="black"/>
<path d="M18.5473 11.7275C18.9962 11.7275 19.3602 11.3635 19.3602 10.9146C19.3602 10.4656 18.9962 10.1017 18.5473 10.1017C18.0983 10.1017 17.7344 10.4656 17.7344 10.9146C17.7344 11.3635 18.0983 11.7275 18.5473 11.7275Z" fill="black"/>
</svg>
